HIERARCHY
ROOT Hips
{
	OFFSET 0.000000 0.000000 0.000000
	CHANNELS 6 Xposition Yposition Zposition Zrotation Yrotation Xrotation 
	JOINT LHipJoint
	{
		OFFSET 0.000000 0.000000 0.000000
		CHANNELS 3 Zrotation Yrotation Xrotation
		JOINT LeftUpLeg
		{
			OFFSET 1.363060 -1.794630 0.839290
			CHANNELS 3 Zrotation Yrotation Xrotation
			JOINT LeftLeg
			{
				OFFSET 2.448110 -6.726130 0.000000
				CHANNELS 3 Zrotation Yrotation Xrotation
				JOINT LeftFoot
				{
					OFFSET 2.562200 -7.039590 0.000000
					CHANNELS 3 Zrotation Yrotation Xrotation
					JOINT LeftToeBase
					{
						OFFSET 0.157640 -0.433110 2.322550
						CHANNELS 3 Zrotation Yrotation Xrotation
						End Site
						{
							OFFSET 0.000000 0.000000 0.000000
						}
					}
				}
			}
		}
	}
	JOINT RHipJoint
	{
		OFFSET 0.000000 0.000000 0.000000
		CHANNELS 3 Zrotation Yrotation Xrotation
		JOINT RightUpLeg
		{
			OFFSET -1.305520 -1.794630 0.839290
			CHANNELS 3 Zrotation Yrotation Xrotation
			JOINT RightLeg
			{
				OFFSET -2.542530 -6.985550 0.000000
				CHANNELS 3 Zrotation Yrotation Xrotation
				JOINT RightFoot
				{
					OFFSET -2.568260 -7.056230 0.000000
					CHANNELS 3 Zrotation Yrotation Xrotation
					JOINT RightToeBase
					{
						OFFSET -0.164730 -0.452590 2.363150
						CHANNELS 3 Zrotation Yrotation Xrotation
						End Site
						{
							OFFSET 0.000000 0.000000 0.000000
						}
					}
				}
			}
		}
	}
	JOINT LowerBack
	{
		OFFSET 0.000000 0.000000 0.000000
		CHANNELS 3 Zrotation Yrotation Xrotation
		JOINT Spine
		{
			OFFSET 0.028270 2.035590 -0.193380
			CHANNELS 3 Zrotation Yrotation Xrotation
			JOINT Spine1
			{
				OFFSET 0.056720 2.048850 -0.042750
				CHANNELS 3 Zrotation Yrotation Xrotation
				JOINT Neck
				{
					OFFSET 0.000000 0.000000 0.000000
					CHANNELS 3 Zrotation Yrotation Xrotation
					JOINT Neck1
					{
						OFFSET -0.054170 1.746240 0.172020
						CHANNELS 3 Zrotation Yrotation Xrotation
						JOINT Head
						{
							OFFSET 0.104070 1.761360 -0.123970
							CHANNELS 3 Zrotation Yrotation Xrotation
							End Site
							{
								OFFSET 0.000000 0.000000 0.000000
							}
						}
					}
				}
				JOINT LeftShoulder
				{
					OFFSET 0.000000 0.000000 0.000000
					CHANNELS 3 Zrotation Yrotation Xrotation
					JOINT LeftArm
					{
						OFFSET 3.362410 1.200890 -0.311210
						CHANNELS 3 Zrotation Yrotation Xrotation
						JOINT LeftForeArm
						{
							OFFSET 4.983000 -0.000000 -0.000000
							CHANNELS 3 Zrotation Yrotation Xrotation
							JOINT LeftHand
							{
								OFFSET 3.483560 -0.000000 -0.000000
								CHANNELS 3 Zrotation Yrotation Xrotation
								JOINT LeftFingerBase
								{
									OFFSET 0.000000 0.000000 0.000000
									CHANNELS 3 Zrotation Yrotation Xrotation
									JOINT LeftHandIndex1
									{
										OFFSET 0.715260 -0.000000 -0.000000
										CHANNELS 3 Zrotation Yrotation Xrotation
										End Site
										{
											OFFSET 0.000000 0.000000 0.000000
										}
									}
								}
								JOINT LThumb
								{
									OFFSET 0.000000 0.000000 0.000000
									CHANNELS 3 Zrotation Yrotation Xrotation
									End Site
									{
										OFFSET 0.000000 0.000000 0.000000
									}
								}
							}
						}
					}
				}
				JOINT RightShoulder
				{
					OFFSET 0.000000 0.000000 0.000000
					CHANNELS 3 Zrotation Yrotation Xrotation
					JOINT RightArm
					{
						OFFSET -3.136600 1.374050 -0.404650
						CHANNELS 3 Zrotation Yrotation Xrotation
						JOINT RightForeArm
						{
							OFFSET -5.241900 -0.000000 -0.000000
							CHANNELS 3 Zrotation Yrotation Xrotation
							JOINT RightHand
							{
								OFFSET -3.444170 -0.000000 -0.000000
								CHANNELS 3 Zrotation Yrotation Xrotation
								JOINT RightFingerBase
								{
									OFFSET 0.000000 0.000000 0.000000
									CHANNELS 3 Zrotation Yrotation Xrotation
									JOINT RightHandIndex1
									{
										OFFSET -0.622530 -0.000000 -0.000000
										CHANNELS 3 Zrotation Yrotation Xrotation
										End Site
										{
											OFFSET 0.000000 0.000000 0.000000
										}
									}
								}
								JOINT RThumb
								{
									OFFSET 0.000000 0.000000 0.000000
									CHANNELS 3 Zrotation Yrotation Xrotation
									End Site
									{
										OFFSET 0.000000 0.000000 0.000000
									}
								}
							}
						}
					}
				}
			}
		}
	}
}
MOTION
Frames: 10
Frame Time: 0.016667
-1.708118 19.296474 23.779977 5.166500 10.172257 8.516423 -28.177849 -8.987337 -7.734695 2.163731 -4.412397 -21.016714 11.871024 5.213175 9.641041 1.888040 21.158771 51.225585 0.000000 0.000000 0.000000 23.173400 8.821899 23.242846 -9.842611 18.458818 -7.440796 5.400711 5.050293 36.241160 -0.312399 -46.909580 58.388418 0.000000 0.000000 0.000000 8.837744 10.531078 -7.274270 -29.316990 19.429279 72.866067 7.565344 3.749774 -50.828947 -46.008450 13.423061 -24.864627 29.192393 5.353880 -1.833307 0.000000 0.000000 0.000000 15.690197 6.754491 -2.146967 -76.420951 -15.406777 21.912670 -54.452703 -12.938422 2.095696 5.889213 -21.036888 1.026945 5.968440 -21.030363 0.000000 0.000000 0.000000 0.000000 0.000000 0.000000 0.000000 33.367876 -34.209983 -14.198814 50.278351 13.115644 3.296822 2.162458 33.524111 0.216281 0.561251 2.762025 0.108246 0.566838 2.764565 -0.000000 0.000000 0.000000 0.000000 0.000000 0.000000 0.000000 
-1.786247 19.495344 23.975425 4.134806 13.792560 8.871110 -28.838465 -8.621443 -6.565434 3.423847 -4.703554 -21.703893 10.895564 4.690360 8.213953 2.030779 21.570086 52.796118 0.000000 0.000000 0.000000 23.562762 12.601638 24.666795 -12.598253 20.055421 -8.544552 9.295097 7.115879 36.922377 -7.084103 -44.245058 56.815080 0.000000 0.000000 0.000000 7.747730 9.896535 -8.995523 -25.448315 18.677174 81.592442 7.459628 3.954162 -55.315755 -47.807105 14.500223 -27.000858 29.088915 5.976549 -2.870653 0.000000 0.000000 0.000000 15.470599 6.149051 -4.105163 -77.567120 -16.481544 24.775444 -58.487450 -13.835194 2.428076 7.666842 -22.371995 1.183699 7.782714 -22.341633 -0.000000 0.000000 0.000000 0.000000 0.000000 0.000000 0.000000 34.979698 -35.192194 -16.455328 50.214232 14.863820 3.461273 2.326679 32.380844 0.215143 0.580908 2.652647 0.107676 0.586349 2.655264 0.000000 0.000000 0.000000 0.000000 0.000000 0.000000 0.000000 
-1.863743 19.641224 24.165238 3.339885 16.473324 9.079077 -28.841485 -8.053913 -5.671752 4.020488 -4.911742 -21.942179 9.986977 4.141889 6.829846 2.100323 21.743134 53.821547 0.000000 0.000000 0.000000 23.948585 14.573659 25.243212 -14.399798 20.114544 -9.666895 12.354830 8.844510 37.951235 -11.723959 -43.106821 55.288697 0.000000 0.000000 0.000000 6.303225 9.498915 -9.902705 -21.726742 17.020905 87.538219 7.114176 3.612539 -58.693046 -49.010956 15.288541 -28.437576 28.956194 6.404436 -3.585740 0.000000 0.000000 0.000000 14.952646 5.401347 -5.603852 -77.894257 -16.877844 28.164694 -62.579407 -16.065092 2.673571 8.933586 -23.103099 1.298280 9.078517 -23.051047 0.000000 0.000000 0.000000 0.000000 0.000000 0.000000 0.000000 35.969581 -35.721733 -17.817772 50.326860 16.087559 3.427162 2.468034 31.158557 0.209846 0.591180 2.527708 0.105024 0.596401 2.530308 -0.000000 0.000000 0.000000 0.000000 0.000000 0.000000 0.000000 
-1.935830 19.761293 24.348511 2.693892 18.713485 9.177568 -28.670654 -7.446807 -4.827646 4.455223 -5.056563 -22.018375 9.078688 3.582256 5.397189 2.155079 21.842084 54.636770 0.000000 0.000000 0.000000 24.464672 15.794692 25.385434 -15.694012 19.551652 -10.621253 14.496694 10.669109 39.229307 -15.139573 -42.772980 54.170804 0.000000 0.000000 0.000000 4.728735 9.145270 -10.475185 -17.907494 14.716300 92.189799 6.420777 2.806325 -61.596751 -50.079505 15.956266 -29.665068 28.834337 6.783988 -4.166833 0.000000 0.000000 0.000000 14.208758 4.540715 -6.863753 -77.763236 -16.900793 32.039426 -66.302224 -19.454587 2.853081 9.633765 -23.351597 1.382925 9.792738 -23.288213 0.000000 0.000000 0.000000 0.000000 0.000000 0.000000 0.000000 36.594490 -36.168790 -18.793592 50.598701 17.026997 3.302132 2.503549 30.005603 0.203017 0.598770 2.387152 0.101607 0.603769 2.389697 -0.000000 0.000000 0.000000 0.000000 0.000000 0.000000 0.000000 
-2.001795 19.854113 24.525142 2.150128 20.653469 9.181943 -28.357464 -6.828064 -4.001389 4.765769 -5.179315 -21.970588 8.173188 2.982476 3.909840 2.176603 21.856950 55.252989 0.000000 0.000000 0.000000 25.052059 16.571247 25.231272 -16.618913 18.745186 -11.365207 16.068946 12.562213 40.686463 -17.727056 -43.035007 53.346142 0.000000 0.000000 0.000000 3.061294 8.757998 -10.854115 -13.956687 11.794446 95.540515 5.356658 1.502886 -64.008460 -51.046992 16.500684 -30.674599 28.802684 7.128827 -4.593435 0.000000 0.000000 0.000000 13.247545 3.614483 -7.812713 -77.243177 -16.602366 36.263402 -69.555662 -23.727334 2.955491 9.669825 -23.100428 1.433890 9.822213 -23.042631 0.000000 0.000000 0.000000 0.000000 0.000000 0.000000 0.000000 36.840560 -36.634423 -19.414681 50.976297 17.641285 3.099495 2.445526 28.928563 0.194902 0.605414 2.233799 0.097547 0.610190 2.236254 -0.000000 0.000000 0.000000 0.000000 0.000000 0.000000 0.000000 
-2.056688 19.947380 24.695525 1.623351 22.396167 9.123846 -28.073302 -6.225415 -3.149466 5.177307 -5.255471 -21.951054 7.242537 2.430735 2.453251 2.251448 21.949285 55.903203 0.000000 0.000000 0.000000 25.581523 17.147971 24.875191 -17.471410 17.689188 -12.074057 17.549088 14.601853 42.371605 -20.055570 -43.545017 52.467589 0.000000 0.000000 0.000000 1.535962 8.341952 -11.155320 -10.022447 8.680911 98.331273 4.061398 -0.095534 -66.236275 -52.143762 16.998849 -31.581076 28.829928 7.498664 -5.027772 0.000000 0.000000 0.000000 12.095916 2.523487 -8.497980 -76.540046 -15.890320 42.246056 -71.502276 -30.635805 3.089469 9.417797 -22.671416 1.504445 9.542168 -22.632130 0.000000 0.000000 0.000000 0.000000 0.000000 0.000000 0.000000 37.054512 -37.128774 -19.974736 51.289587 18.115327 2.898746 2.315651 27.984964 0.186990 0.601247 2.092810 0.093588 0.605814 2.095177 -0.000000 0.000000 0.000000 0.000000 0.000000 0.000000 0.000000 
-2.100315 20.040844 24.859818 1.103117 23.983546 9.005409 -27.801240 -5.632717 -2.259453 5.645538 -5.314747 -21.968025 6.322963 1.916284 1.040711 2.370028 22.107102 56.569801 0.000000 0.000000 0.000000 26.015266 17.568001 24.360887 -18.252222 16.497090 -12.768472 19.146642 16.703767 44.210284 -22.226138 -44.304905 51.525329 0.000000 0.000000 0.000000 0.167813 7.881609 -11.419779 -6.096534 5.442717 100.585328 2.541142 -1.962149 -68.242640 -53.368670 17.436049 -32.385715 28.936035 7.897596 -5.473152 0.000000 0.000000 0.000000 10.752869 1.311965 -8.778997 -75.680416 -14.995993 50.086535 -71.727719 -40.014091 3.274715 8.842714 -22.042643 1.605334 8.911963 -22.037115 0.000000 0.000000 0.000000 0.000000 0.000000 0.000000 0.000000 37.257210 -37.687237 -20.511006 51.506981 18.449630 2.701615 2.121220 27.172701 0.179408 0.588133 1.963168 0.089795 0.592507 1.965450 -0.000000 0.000000 0.000000 0.000000 0.000000 0.000000 0.000000 
-2.132776 20.138056 25.017495 0.669813 25.290049 8.905867 -27.542182 -5.129721 -1.484572 6.070105 -5.350018 -22.028414 5.502747 1.550177 -0.076629 2.529364 22.338145 57.199799 0.000000 0.000000 0.000000 26.310204 17.851837 23.783823 -18.964543 15.287779 -13.428585 20.707446 18.699140 45.902635 -24.280008 -45.133800 50.620975 0.000000 0.000000 0.000000 -0.928579 7.450082 -11.538407 -2.712642 2.638966 102.381265 1.096760 -3.677177 -70.038449 -54.455544 17.813474 -33.083336 28.925254 8.280136 -5.888501 0.000000 0.000000 0.000000 9.248627 0.383438 -8.534319 -74.602900 -14.603695 58.146764 -70.234892 -49.583912 3.380709 7.845688 -20.966945 1.669842 7.847808 -21.002385 0.000000 0.000000 0.000000 0.000000 0.000000 0.000000 0.000000 37.615589 -38.325497 -21.152956 51.647486 18.708340 2.542739 1.914741 26.555094 0.173638 0.578625 1.854926 0.086909 0.582857 1.857147 -0.000000 0.000000 0.000000 0.000000 0.000000 0.000000 0.000000 
-2.153596 20.239308 25.168721 0.316012 26.350544 8.850436 -27.310421 -4.710686 -0.822751 6.425170 -5.372395 -22.153557 4.809798 1.334086 -0.909248 2.713943 22.621026 57.770273 0.000000 0.000000 0.000000 26.395853 18.062149 23.207286 -19.656455 14.175510 -14.042401 22.244013 20.449643 47.376491 -26.319583 -46.020857 49.721433 0.000000 0.000000 0.000000 -1.670590 7.029475 -11.561257 -0.047583 0.415936 103.910872 -0.230390 -5.145044 -71.636740 -55.360444 18.129881 -33.765334 28.775752 8.642484 -6.283031 0.000000 0.000000 0.000000 7.508882 -0.151753 -7.622848 -73.044645 -14.988734 65.785554 -66.865787 -58.741860 3.334105 6.570380 -19.448027 1.657132 6.516840 -19.517121 0.000000 0.000000 0.000000 0.000000 0.000000 0.000000 0.000000 38.257451 -39.013314 -21.956299 51.722631 18.926359 2.424659 1.715982 26.133434 0.169673 0.574266 1.765569 0.084925 0.578404 1.767752 -0.000000 0.000000 0.000000 0.000000 0.000000 0.000000 0.000000 
-2.166046 20.332536 25.318351 0.019114 27.160195 8.867581 -27.033721 -4.355445 -0.299879 6.654680 -5.406508 -22.341723 4.267382 1.248809 -1.461849 2.856117 22.874568 58.171818 0.000000 0.000000 0.000000 26.223145 18.206961 22.689472 -20.364743 13.258562 -14.562766 23.804269 21.867413 48.608131 -28.428808 -46.933531 48.803394 0.000000 0.000000 0.000000 -2.132131 6.664678 -11.515571 1.887299 -1.246290 105.128790 -1.268115 -6.221402 -73.103953 -55.765142 18.361681 -34.427792 28.437347 8.906329 -6.463799 0.000000 0.000000 0.000000 5.702372 -0.078906 -6.350787 -71.173089 -16.164239 69.751979 -64.717837 -63.800615 3.106342 5.193363 -17.748140 1.549204 5.116163 -17.832247 -0.000000 0.000000 0.000000 0.000000 0.000000 0.000000 0.000000 38.943117 -39.760328 -22.780281 51.824088 19.073042 2.332400 1.727110 25.736086 0.166380 0.588143 1.687965 0.083277 0.592192 1.690099 -0.000000 0.000000 0.000000 0.000000 0.000000 0.000000 0.000000 
